<svg width="72" height="100" viewBox="0 0 72 100" fill="none" xmlns="http://www.w3.org/2000/svg">
<g clip-path="url(#clip0_33646_2613)">
<path d="M0.000335953 0V14.1667C7.88973 14.1667 14.3058 7.85 14.4503 0H0.000335953ZM28.6279 0C28.4833 15.6722 15.718 28.3333 0.000335953 28.3333V42.7778C10.1137 42.7778 19.4097 39.2944 26.7598 33.4667C36.6396 25.6389 43 13.5611 43.0834 0H28.6279ZM51.362 49.8611C64.0051 37.0055 71.85 19.4167 71.9945 0H57.539C57.3889 15.9055 50.7782 30.2667 40.1979 40.5778C36.4839 44.2111 32.2751 47.3444 27.6883 49.8611C19.4764 54.3778 10.0358 56.9444 0.000335953 56.9444V71.3889C9.27969 71.3889 18.1476 69.6333 26.2928 66.4444C31.2132 64.5111 35.8723 62.0555 40.1979 59.1444C43.9119 62.7611 47.1366 66.8777 49.7664 71.3889C49.822 71.4833 49.872 71.5722 49.9276 71.6666H66.0789C66.04 71.5777 66.001 71.4833 65.9621 71.3889C62.4205 63.3333 57.45 56.05 51.362 49.8611Z" fill="white"/>
<path d="M14.1664 100H0V86.3889C7.6392 86.3889 13.8718 92.4333 14.1664 100Z" fill="white"/>
<path d="M72 100H57.5389C57.4944 89.6889 54.7313 80.0166 49.9276 71.6666C49.872 71.5722 49.822 71.4833 49.7664 71.3889H65.9621C66.001 71.4833 66.04 71.5777 66.0789 71.6666C69.854 80.3555 71.9611 89.9333 72 100Z" fill="white"/>
</g>
<defs>
<clipPath id="clip0_33646_2613">
<rect width="72" height="100" fill="white"/>
</clipPath>
</defs>
</svg>
