<svg width="473" height="100" viewBox="0 0 473 100" fill="none" xmlns="http://www.w3.org/2000/svg">
<path d="M0.000335693 0V14.1667C7.88364 14.1667 14.2947 7.85 14.4392 0H0.000335693ZM28.6058 0C28.4613 15.6722 15.7058 28.3333 0.000335693 28.3333V42.7778C10.1059 42.7778 19.3947 39.2944 26.7391 33.4667C36.6113 25.6389 42.9668 13.5611 43.0502 0H28.6058ZM51.3224 49.8611C63.9556 37.0055 71.7945 19.4167 71.9389 0H57.4946C57.3446 15.9056 50.739 30.2667 40.1668 40.5778C36.4558 44.2111 32.2502 47.3444 27.6669 49.8611C19.4614 54.3778 10.0281 56.9444 0.000335693 56.9444V71.3889C9.27252 71.3889 18.1336 69.6333 26.2725 66.4444C31.1891 64.5111 35.8446 62.0555 40.1668 59.1444C43.8779 62.7611 47.1002 66.8778 49.7279 71.3889C49.7835 71.4833 49.8335 71.5722 49.889 71.6666H66.0279C65.989 71.5778 65.9501 71.4833 65.9112 71.3889C62.3723 63.3333 57.4057 56.05 51.3224 49.8611Z" fill="black"/>
<path d="M14.1555 100H0V86.3889C7.6333 86.3889 13.8611 92.4334 14.1555 100Z" fill="black"/>
<path d="M71.9444 100H57.4945C57.45 89.6889 54.6889 80.0167 49.889 71.6667C49.8334 71.5722 49.7834 71.4834 49.7278 71.3889H65.9111C65.95 71.4834 65.9889 71.5778 66.0278 71.6667C69.8 80.3556 71.9055 89.9334 71.9444 100Z" fill="black"/>
<path d="M145.252 78.7583L132.898 57.4713H121.544V78.7583H111.944V20.3234H135.318C140.55 20.3234 144.974 22.16 148.591 25.833C152.264 29.4504 154.101 33.8748 154.101 39.1061C154.101 42.8348 153.016 46.2574 150.845 49.3739C148.731 52.4348 145.948 54.6609 142.498 56.0522L155.771 78.7583H145.252ZM121.544 29.3391V48.873H135.318C137.878 48.873 140.049 47.9269 141.83 46.0348C143.611 44.1426 144.501 41.833 144.501 39.1061C144.501 36.3791 143.611 34.0695 141.83 32.1774C140.049 30.2852 137.878 29.3391 135.318 29.3391H121.544Z" fill="black"/>
<path d="M171.071 29.0887C169.958 30.2017 168.622 30.7582 167.064 30.7582C165.505 30.7582 164.142 30.2017 162.973 29.0887C161.86 27.92 161.304 26.5565 161.304 24.9982C161.304 23.44 161.86 22.1043 162.973 20.9913C164.086 19.8226 165.45 19.2382 167.064 19.2382C168.678 19.2382 170.041 19.8226 171.154 20.9913C172.267 22.1043 172.824 23.44 172.824 24.9982C172.824 26.5565 172.239 27.92 171.071 29.0887ZM162.556 78.7583V37.0191H171.571V78.7583H162.556Z" fill="black"/>
<path d="M210.339 37.0191H220.189L203.911 78.7583H193.476L177.198 37.0191H187.048L198.735 68.7409L210.339 37.0191Z" fill="black"/>
<path d="M254.03 37.0191H263.046V78.7583H254.03V73.4157C251.303 77.7009 246.99 79.8435 241.091 79.8435C236.305 79.8435 232.437 78.313 229.488 75.2522C226.538 72.1913 225.063 67.9896 225.063 62.6469V37.0191H234.079V61.7287C234.079 64.8452 234.914 67.2383 236.583 68.9078C238.253 70.5774 240.535 71.4122 243.429 71.4122C246.601 71.4122 249.161 70.4383 251.109 68.4904C253.057 66.487 254.03 63.4539 254.03 59.3913V37.0191Z" fill="black"/>
<path d="M273.588 78.7583V17.8191H282.604V78.7583H273.588Z" fill="black"/>
<path d="M300.168 61.7287C300.836 64.9009 302.366 67.3496 304.759 69.0748C307.152 70.7443 310.074 71.5791 313.524 71.5791C318.31 71.5791 321.9 69.8539 324.293 66.4035L331.723 70.7443C327.604 76.8104 321.51 79.8435 313.441 79.8435C306.651 79.8435 301.17 77.7843 296.996 73.6661C292.822 69.4922 290.735 64.233 290.735 57.8887C290.735 51.6556 292.794 46.4522 296.912 42.2782C301.03 38.0487 306.317 35.9339 312.773 35.9339C318.895 35.9339 323.904 38.0765 327.799 42.3617C331.75 46.6469 333.726 51.8504 333.726 57.9722C333.726 58.9183 333.615 60.1704 333.392 61.7287H300.168ZM300.084 54.3826H324.627C324.015 50.9878 322.596 48.4278 320.37 46.7026C318.199 44.9774 315.639 44.1148 312.69 44.1148C309.35 44.1148 306.568 45.033 304.342 46.8695C302.116 48.7061 300.697 51.2104 300.084 54.3826Z" fill="black"/>
<path d="M363.645 45.7008H353.294V65.7356C353.294 67.4609 353.684 68.713 354.463 69.4922C355.242 70.2156 356.383 70.633 357.885 70.7443C359.444 70.8 361.364 70.7722 363.645 70.6609V78.7583C356.744 79.593 351.791 79.0087 348.786 77.0052C345.781 74.9461 344.278 71.1896 344.278 65.7356V45.7008H336.598V37.0191H344.278V28.0034L353.294 25.3321V37.0191H363.645V45.7008Z" fill="black"/>
<path d="M393.684 20.3234H403.284V78.7583H393.684V20.3234Z" fill="black"/>
<path d="M472.644 49.5409C472.644 57.3322 470.084 64.0661 464.964 69.7426L471.142 76.087L464.38 82.1809L457.952 75.5861C453.055 78.4243 447.851 79.8435 442.342 79.8435C433.938 79.8435 426.787 76.9217 420.888 71.0783C414.989 65.1791 412.039 58 412.039 49.5409C412.039 41.0817 414.989 33.9304 420.888 28.0869C426.787 22.1878 433.938 19.2382 442.342 19.2382C450.745 19.2382 457.897 22.1878 463.796 28.0869C469.695 33.9304 472.644 41.0817 472.644 49.5409ZM442.342 70.4939C445.458 70.4939 448.38 69.8539 451.107 68.5739L440.422 57.6382L447.184 51.5443L458.37 62.9809C461.486 59.1409 463.044 54.6609 463.044 49.5409C463.044 43.5861 461.041 38.6052 457.034 34.5982C453.027 30.5913 448.13 28.5878 442.342 28.5878C436.554 28.5878 431.657 30.5913 427.65 34.5982C423.643 38.6052 421.639 43.5861 421.639 49.5409C421.639 55.4956 423.643 60.4765 427.65 64.4835C431.657 68.4904 436.554 70.4939 442.342 70.4939Z" fill="black"/>
</svg>
